<svg xmlns="http://www.w3.org/2000/svg" xmlns:xlink="http://www.w3.org/1999/xlink" version="1.1" data-diagram-type="ACTIVITY" style="width:820px;height:736px;background:#FFFFFF;" width="820px" height="736px" viewBox="0 0 820 736" zoomAndPan="magnify" preserveAspectRatio="none" contentStyleType="text/css"><?plantuml 1.2026.7?><defs/><g font-family="sans-serif" lengthAdjust="spacing"><g class="title" data-source-line="1"><text x="260.792" y="32.995" fill="#000" font-size="14" textLength="296.604" font-weight="700">CJM: Заведение обрабатывает заказ</text></g><ellipse cx="398.915" cy="62.297" rx="10" ry="10" fill="#222" style="stroke:#222;stroke-width:1;"/><rect x="253.006" y="92.297" width="291.816" height="33.969" fill="#F1F1F1" style="stroke:#181818;stroke-width:0.5;" rx="12.5" ry="12.5"/><text x="263.006" y="113.436" fill="#000" font-size="12" textLength="271.816">Заведение аутентифицируется (X-API-Key)</text><rect x="245.682" y="146.266" width="306.465" height="33.969" fill="#F1F1F1" style="stroke:#181818;stroke-width:0.5;" rx="12.5" ry="12.5"/><text x="255.682" y="167.404" fill="#000" font-size="12" textLength="286.465">Ведёт меню (POST/PATCH /venue/menu-items)</text><rect x="99.123" y="200.234" width="599.584" height="6" fill="#555" style="stroke:#555;stroke-width:1;" rx="2.5" ry="2.5"/><rect x="113.123" y="226.234" width="270.711" height="33.969" fill="#F1F1F1" style="stroke:#181818;stroke-width:0.5;" rx="12.5" ry="12.5"/><text x="123.123" y="247.373" fill="#000" font-size="12" textLength="250.711">Poll: GET /venue/orders?status=CREATED</text><rect x="411.833" y="226.234" width="272.873" height="33.969" fill="#F1F1F1" style="stroke:#181818;stroke-width:0.5;" rx="12.5" ry="12.5"/><text x="421.833" y="247.373" fill="#000" font-size="12" textLength="252.873">Push: получить webhook о новом заказе</text><rect x="99.123" y="280.203" width="599.584" height="6" fill="#555" style="stroke:#555;stroke-width:1;" rx="2.5" ry="2.5"/><rect x="312.037" y="306.203" width="173.756" height="33.969" fill="#F1F1F1" style="stroke:#181818;stroke-width:0.5;" rx="12.5" ry="12.5"/><text x="322.037" y="327.342" fill="#000" font-size="12" textLength="153.756">Новый заказ обнаружен</text><polygon points="304.378,360.172,493.451,360.172,505.451,372.172,493.451,384.172,304.378,384.172,292.378,372.172,304.378,360.172" fill="#F1F1F1" style="stroke:#181818;stroke-width:0.5;stroke-linejoin:miter;stroke-miterlimit:10;"/><text x="304.378" y="375.98" fill="#000" font-size="11" textLength="189.073">Есть возможность приготовить?</text><text x="278.032" y="369.578" fill="#000" font-size="11" textLength="14.346">да</text><text x="505.451" y="369.578" fill="#000" font-size="11" textLength="20.367">нет</text><rect x="16" y="394.172" width="363.734" height="33.969" fill="#F1F1F1" style="stroke:#181818;stroke-width:0.5;" rx="12.5" ry="12.5"/><text x="26" y="415.311" fill="#000" font-size="12" textLength="343.734">Принять заказ (POST /orders/{id}/accept) -> ACCEPTED</text><rect x="37.902" y="448.141" width="319.93" height="33.969" fill="#F1F1F1" style="stroke:#181818;stroke-width:0.5;" rx="12.5" ry="12.5"/><text x="47.902" y="469.279" fill="#000" font-size="12" textLength="299.93">Готовка (PATCH .../status COOKING) -> COOKING</text><rect x="57.786" y="502.109" width="280.162" height="33.969" fill="#F1F1F1" style="stroke:#181818;stroke-width:0.5;" rx="12.5" ry="12.5"/><text x="67.786" y="523.248" fill="#000" font-size="12" textLength="260.162">Готово (PATCH .../status READY) -> READY</text><rect x="73.454" y="556.078" width="248.826" height="33.969" fill="#F1F1F1" style="stroke:#181818;stroke-width:0.5;" rx="12.5" ry="12.5"/><text x="83.454" y="577.217" fill="#000" font-size="12" textLength="228.826">Передать в доставку -> DELIVERING</text><rect x="102.458" y="610.047" width="190.818" height="33.969" fill="#F1F1F1" style="stroke:#181818;stroke-width:0.5;" rx="12.5" ry="12.5"/><text x="112.458" y="631.186" fill="#000" font-size="12" textLength="170.818">Доставлено -> COMPLETED</text><rect x="399.734" y="394.172" width="400.455" height="33.969" fill="#F1F1F1" style="stroke:#181818;stroke-width:0.5;" rx="12.5" ry="12.5"/><text x="409.734" y="415.311" fill="#000" font-size="12" textLength="380.455">Отклонить (POST /orders/{id}/reject + reason) -> CANCELLED</text><polygon points="398.915,650.016,410.915,662.016,398.915,674.016,386.915,662.016,398.915,650.016" fill="#F1F1F1" style="stroke:#181818;stroke-width:0.5;stroke-linejoin:miter;stroke-miterlimit:10;"/><ellipse cx="398.915" cy="705.016" rx="11" ry="11" fill="none" style="stroke:#222;stroke-width:1;"/><ellipse cx="398.915" cy="705.016" rx="6" ry="6" fill="#222" style="stroke:#222;stroke-width:1;"/><line x1="398.915" y1="72.297" x2="398.915" y2="92.297" style="stroke:#181818;stroke-width:1;"/><polygon points="394.915,82.297,398.915,92.297,402.915,82.297,398.915,86.297" fill="#181818" style="stroke:#181818;stroke-width:1;stroke-linejoin:miter;stroke-miterlimit:10;"/><line x1="398.915" y1="126.266" x2="398.915" y2="146.266" style="stroke:#181818;stroke-width:1;"/><polygon points="394.915,136.266,398.915,146.266,402.915,136.266,398.915,140.266" fill="#181818" style="stroke:#181818;stroke-width:1;stroke-linejoin:miter;stroke-miterlimit:10;"/><line x1="248.478" y1="206.234" x2="248.478" y2="226.234" style="stroke:#181818;stroke-width:1;"/><polygon points="244.478,216.234,248.478,226.234,252.478,216.234,248.478,220.234" fill="#181818" style="stroke:#181818;stroke-width:1;stroke-linejoin:miter;stroke-miterlimit:10;"/><line x1="548.27" y1="206.234" x2="548.27" y2="226.234" style="stroke:#181818;stroke-width:1;"/><polygon points="544.27,216.234,548.27,226.234,552.27,216.234,548.27,220.234" fill="#181818" style="stroke:#181818;stroke-width:1;stroke-linejoin:miter;stroke-miterlimit:10;"/><line x1="248.478" y1="260.203" x2="248.478" y2="280.203" style="stroke:#181818;stroke-width:1;"/><polygon points="244.478,270.203,248.478,280.203,252.478,270.203,248.478,274.203" fill="#181818" style="stroke:#181818;stroke-width:1;stroke-linejoin:miter;stroke-miterlimit:10;"/><line x1="548.27" y1="260.203" x2="548.27" y2="280.203" style="stroke:#181818;stroke-width:1;"/><polygon points="544.27,270.203,548.27,280.203,552.27,270.203,548.27,274.203" fill="#181818" style="stroke:#181818;stroke-width:1;stroke-linejoin:miter;stroke-miterlimit:10;"/><line x1="398.915" y1="180.234" x2="398.915" y2="200.234" style="stroke:#181818;stroke-width:1;"/><polygon points="394.915,190.234,398.915,200.234,402.915,190.234,398.915,194.234" fill="#181818" style="stroke:#181818;stroke-width:1;stroke-linejoin:miter;stroke-miterlimit:10;"/><line x1="398.915" y1="286.203" x2="398.915" y2="306.203" style="stroke:#181818;stroke-width:1;"/><polygon points="394.915,296.203,398.915,306.203,402.915,296.203,398.915,300.203" fill="#181818" style="stroke:#181818;stroke-width:1;stroke-linejoin:miter;stroke-miterlimit:10;"/><line x1="197.867" y1="428.141" x2="197.867" y2="448.141" style="stroke:#181818;stroke-width:1;"/><polygon points="193.867,438.141,197.867,448.141,201.867,438.141,197.867,442.141" fill="#181818" style="stroke:#181818;stroke-width:1;stroke-linejoin:miter;stroke-miterlimit:10;"/><line x1="197.867" y1="482.109" x2="197.867" y2="502.109" style="stroke:#181818;stroke-width:1;"/><polygon points="193.867,492.109,197.867,502.109,201.867,492.109,197.867,496.109" fill="#181818" style="stroke:#181818;stroke-width:1;stroke-linejoin:miter;stroke-miterlimit:10;"/><line x1="197.867" y1="536.078" x2="197.867" y2="556.078" style="stroke:#181818;stroke-width:1;"/><polygon points="193.867,546.078,197.867,556.078,201.867,546.078,197.867,550.078" fill="#181818" style="stroke:#181818;stroke-width:1;stroke-linejoin:miter;stroke-miterlimit:10;"/><line x1="197.867" y1="590.047" x2="197.867" y2="610.047" style="stroke:#181818;stroke-width:1;"/><polygon points="193.867,600.047,197.867,610.047,201.867,600.047,197.867,604.047" fill="#181818" style="stroke:#181818;stroke-width:1;stroke-linejoin:miter;stroke-miterlimit:10;"/><line x1="292.378" y1="372.172" x2="197.867" y2="372.172" style="stroke:#181818;stroke-width:1;"/><line x1="197.867" y1="372.172" x2="197.867" y2="394.172" style="stroke:#181818;stroke-width:1;"/><polygon points="193.867,384.172,197.867,394.172,201.867,384.172,197.867,388.172" fill="#181818" style="stroke:#181818;stroke-width:1;stroke-linejoin:miter;stroke-miterlimit:10;"/><line x1="505.451" y1="372.172" x2="599.962" y2="372.172" style="stroke:#181818;stroke-width:1;"/><line x1="599.962" y1="372.172" x2="599.962" y2="394.172" style="stroke:#181818;stroke-width:1;"/><polygon points="595.962,384.172,599.962,394.172,603.962,384.172,599.962,388.172" fill="#181818" style="stroke:#181818;stroke-width:1;stroke-linejoin:miter;stroke-miterlimit:10;"/><line x1="197.867" y1="644.016" x2="197.867" y2="662.016" style="stroke:#181818;stroke-width:1;"/><line x1="197.867" y1="662.016" x2="386.915" y2="662.016" style="stroke:#181818;stroke-width:1;"/><polygon points="376.915,658.016,386.915,662.016,376.915,666.016,380.915,662.016" fill="#181818" style="stroke:#181818;stroke-width:1;stroke-linejoin:miter;stroke-miterlimit:10;"/><line x1="599.962" y1="428.141" x2="599.962" y2="662.016" style="stroke:#181818;stroke-width:1;"/><line x1="599.962" y1="662.016" x2="410.915" y2="662.016" style="stroke:#181818;stroke-width:1;"/><polygon points="420.915,658.016,410.915,662.016,420.915,666.016,416.915,662.016" fill="#181818" style="stroke:#181818;stroke-width:1;stroke-linejoin:miter;stroke-miterlimit:10;"/><line x1="398.915" y1="340.172" x2="398.915" y2="360.172" style="stroke:#181818;stroke-width:1;"/><polygon points="394.915,350.172,398.915,360.172,402.915,350.172,398.915,354.172" fill="#181818" style="stroke:#181818;stroke-width:1;stroke-linejoin:miter;stroke-miterlimit:10;"/><line x1="398.915" y1="674.016" x2="398.915" y2="694.016" style="stroke:#181818;stroke-width:1;"/><polygon points="394.915,684.016,398.915,694.016,402.915,684.016,398.915,688.016" fill="#181818" style="stroke:#181818;stroke-width:1;stroke-linejoin:miter;stroke-miterlimit:10;"/><?plantuml-src RL9DRzD04BtxLymn4KfyTmILvLWbD6si4Y4uccJJcAPsPMz022451vK3Y8elzLJw5zpIa90sxb-O_KVCZjCIeHncDTwTDs_UyyX03WGuZxOjm1FCy08dU4cnm1bE07CyLoEwFiTCfUeZFMSuKIdWb98vnTH8f1zBmrg7pjHOfVgJpfbwJt54CL9ZtKEzKyTGUbgnlKPbIxmkrwZ7LurNNpJ1DUC-GybhFMwRdjrs7eBvKeH3OHxGMGcaE4W8r8lYVGF0ygB1m89DjtrR5SLT4ISRD9uS9lUTNTTkk_MY7lmzFmWPDKpwfFo6X5xHi1zel5HzWbVYUJ-Azaa_a9QSTELulI8Q9pL3X5rWSWjFTGcvysUbXBqZSCPwVsirDIFeGGb_a79Dmbsd93IdPsAvlRuXnsVuYovIfkQHDieW-o8a-2LcPJqwdd7TGXqNi7_CR1ai3J3V1Dstfj_fY4DPXie3i1t7zTWAtUJR7GrX2Sa-LwjLi_0Dd5Phgx6poSXb_ZymNmCZj-lF6CHP0JcZtpxY3ScM1W3bh9jtPwx66b5tcuqdxkuTq_ULaYjUhhoOPjjhkYn43191pYpqMXNU_AJwELNdUXMPR8qfiNWXEXBkGIpy90eBZVQEupQRt3Ni1ZrQx-ZmBm00?></g></svg>